# xmcd
#
# Track frame offsets:
#	183
#	16128
#	29535
#	42053
#	56568
#	69685
#	82995
#	97340
#	112770
#	130408
#	144233
#	157903
#
# Disc length: 2286 seconds
#
# Revision: 4
# Processed by: cddbd v1.5.2PL0 Copyright (c) Steve Scherf et al.
# Submitted via: audiograbber 1.83.01
#
DISCID=9608ec0c,9c08ec0c
DTITLE=Truck Stop - Meisterstücke
DYEAR=1994
DGENRE=Country
TTITLE0=Ich möcht`so gern Dave Dudley hör`n
TTITLE1=Take it easy, altes Haus
TTITLE2=Der wilde, wilde Westen
TTITLE3=Mein Stiefel kommt in`  Himmel
TTITLE4=Die Frau mit dem Gurt
TTITLE5=Arizona, Arizona
TTITLE6=Angeln entspannt
TTITLE7=Squaredance Darling
TTITLE8=Wenn es Nacht wird in Old Tucson
TTITLE9=Die Elbbrücke ist aus Eisen
TTITLE10=Ein kaltes Bier, ein warmes Herz
TTITLE11=Hilly Billy Contry Lilly
EXTD=
EXTT0=
EXTT1=
EXTT2=
EXTT3=
EXTT4=
EXTT5=
EXTT6=
EXTT7=
EXTT8=
EXTT9=
EXTT10=
EXTT11=
PLAYORDER=
